<?xml version="1.0" standalone="no"?>
<!DOCTYPE svg PUBLIC "-//W3C//DTD SVG 20010904//EN"
 "http://www.w3.org/TR/2001/REC-SVG-20010904/DTD/svg10.dtd">
<svg version="1.0" xmlns="http://www.w3.org/2000/svg"
 width="2048.000000pt" height="2048.000000pt" viewBox="0 0 2048.000000 2048.000000"
 preserveAspectRatio="xMidYMid meet">

<g transform="translate(0.000000,2048.000000) scale(0.100000,-0.100000)"
fill="#000000" stroke="none">
<path d="M15255 13941 c-51 -23 -91 -70 -105 -122 -14 -50 -8 -59 40 -59 37 0
40 2 50 39 15 55 50 81 112 81 41 0 54 -5 79 -29 32 -32 39 -87 16 -128 -7
-11 -76 -89 -154 -171 -130 -136 -143 -154 -143 -186 l0 -36 211 0 210 0 -3
38 -3 37 -148 3 -148 3 112 117 c136 142 169 190 169 248 0 79 -34 132 -105
165 -52 24 -138 24 -190 0z"/>
<path d="M17068 13951 c-68 -22 -128 -99 -128 -164 0 -25 3 -27 40 -27 37 0
40 2 50 39 15 55 50 81 112 81 65 0 108 -38 108 -97 0 -55 -26 -91 -176 -244
-123 -125 -134 -138 -134 -172 l0 -37 208 2 207 3 3 37 3 37 -148 3 -148 3 94
98 c161 166 192 218 178 304 -13 80 -82 133 -179 139 -35 2 -75 0 -90 -5z"/>
<path d="M14346 13843 c-4 -60 -8 -137 -9 -173 l-2 -65 36 -3 c30 -3 42 3 71
32 35 35 56 41 117 36 82 -7 126 -111 87 -205 -38 -90 -197 -83 -220 10 -6 22
-11 25 -56 25 -28 0 -50 -5 -50 -10 0 -6 9 -27 19 -48 84 -163 332 -155 397
13 20 54 16 133 -11 189 -22 45 -88 91 -145 101 -47 8 -111 -9 -135 -35 -10
-11 -21 -20 -24 -20 -4 0 -3 35 1 78 3 42 7 83 7 90 1 9 36 12 141 12 l140 0
0 40 0 40 -179 0 -179 0 -6 -107z"/>
<path d="M14935 13934 c-11 -9 -44 -27 -72 -40 -53 -24 -64 -42 -44 -73 9 -14
35 -7 113 27 5 2 8 -114 8 -257 l0 -261 45 0 45 0 0 310 0 310 -37 0 c-21 0
-47 -8 -58 -16z"/>
<path d="M16146 13933 c-3 -14 -17 -214 -21 -318 0 -5 16 -12 35 -17 28 -6 38
-3 50 13 30 38 73 59 124 59 41 0 53 -5 81 -33 81 -81 45 -222 -60 -241 -51
-10 -105 18 -128 67 -17 35 -22 37 -63 37 -42 0 -45 -2 -39 -22 18 -59 42 -93
83 -119 131 -83 302 -20 331 122 25 121 -36 231 -142 257 -55 14 -86 9 -146
-25 l-44 -26 6 39 c4 22 7 63 7 92 l0 52 145 0 145 0 0 40 0 40 -179 0 c-163
0 -180 -2 -185 -17z"/>
<path d="M16721 13936 c-7 -8 -37 -25 -67 -37 -47 -20 -54 -26 -54 -51 0 -39
20 -44 76 -19 25 12 48 21 50 21 2 0 4 -117 4 -260 l0 -260 40 0 40 0 0 310 0
310 -39 0 c-21 0 -44 -6 -50 -14z"/>
<path d="M15673 13783 c-13 -2 -23 -6 -23 -9 0 -3 32 -52 71 -111 l71 -105
-69 -102 c-38 -55 -73 -107 -77 -113 -5 -10 5 -13 42 -13 l50 0 48 80 c27 44
51 80 54 80 3 0 29 -36 59 -80 l53 -80 45 0 c32 0 44 4 40 13 -2 7 -37 58 -77
115 l-72 102 25 38 c14 20 48 70 76 110 l52 72 -49 0 -49 0 -47 -75 c-26 -41
-51 -75 -54 -75 -4 0 -27 33 -51 73 -57 92 -57 92 -118 80z"/>
<path d="M15649 12450 c-63 -19 -119 -89 -119 -148 0 -19 6 -22 39 -22 35 0
39 3 45 30 3 17 17 42 32 56 22 23 32 26 72 21 55 -6 92 -41 92 -88 0 -53 -21
-82 -176 -240 -88 -89 -104 -111 -104 -137 l0 -32 190 0 190 0 0 35 0 34 -132
3 -133 3 108 113 c115 120 137 156 137 225 0 107 -124 183 -241 147z"/>
<path d="M16095 12441 c-62 -29 -105 -86 -105 -142 0 -16 7 -19 40 -19 30 0
40 4 40 16 0 26 31 71 57 83 88 40 175 -36 139 -123 -8 -19 -73 -97 -145 -173
-101 -107 -130 -144 -131 -165 l0 -28 195 0 c186 0 195 1 195 19 0 50 -4 51
-143 51 l-130 0 112 115 c118 121 141 158 141 228 0 117 -146 193 -265 138z"/>
<path d="M16478 12340 c-4 -226 -7 -205 30 -208 25 -3 39 3 63 27 37 38 84 48
132 28 44 -19 67 -61 67 -123 0 -39 -5 -51 -34 -80 -29 -29 -41 -34 -81 -34
-38 0 -52 5 -76 29 -16 16 -29 37 -29 45 0 12 -11 16 -45 16 -25 0 -45 -5 -45
-10 0 -22 40 -89 65 -108 96 -76 258 -43 306 61 22 50 25 125 5 170 -41 97
-166 138 -249 82 l-37 -26 0 54 c0 30 3 69 6 86 l7 31 133 0 134 0 0 35 0 35
-175 0 -175 0 -2 -110z"/>
<path d="M10750 12414 c-25 -2 -151 -8 -280 -14 -610 -28 -1178 -88 -1700
-181 -253 -45 -512 -124 -684 -210 -483 -243 -1319 -816 -1740 -1193 -72 -64
-80 -69 -90 -52 -34 56 -69 97 -98 113 -48 25 -180 21 -372 -12 -185 -31 -250
-52 -294 -98 -96 -99 -89 -341 13 -443 28 -28 26 -29 -40 -38 -85 -12 -592
-105 -744 -137 -799 -165 -1262 -393 -1599 -784 -192 -224 -310 -454 -358
-700 -36 -190 -36 -556 1 -860 40 -333 39 -412 -10 -567 -39 -124 -27 -228 31
-280 53 -46 88 -52 339 -56 l240 -4 29 -64 c58 -128 165 -267 274 -355 l42
-34 -620 0 c-574 0 -621 -1 -637 -17 -26 -26 -22 -86 6 -109 23 -19 132 -19
4096 -19 4457 0 4150 -4 4288 58 196 89 349 239 461 452 l46 88 213 5 c234 5
311 19 437 78 170 79 278 201 397 449 150 310 392 800 745 1510 199 399 414
833 478 965 279 569 478 964 504 998 37 49 114 104 178 129 49 18 89 19 1419
19 1360 0 1367 0 1393 20 30 24 33 58 8 89 l-18 22 -792 -2 -792 -1 -53 35
c-28 19 -121 95 -206 168 -457 395 -659 542 -939 682 -443 222 -831 293 -1852
336 -240 11 -1623 22 -1720 14z m1535 -153 c22 -5 31 -9 19 -10 -11 0 -53 -12
-92 -25 -40 -14 -72 -22 -72 -19 0 3 -6 0 -13 -6 -16 -13 -87 -43 -87 -37 0 3
25 17 55 32 31 14 58 32 62 38 3 6 3 8 -1 4 -4 -3 -23 0 -42 8 -27 11 -34 11
-34 2 0 -9 -3 -9 -8 -3 -8 12 -201 20 -232 10 -17 -5 -20 -14 -18 -47 2 -34 4
-37 14 -23 13 18 23 9 19 -18 -2 -9 1 -15 6 -11 5 3 9 0 9 -5 0 -6 5 -11 11
-11 8 0 8 4 0 14 -8 10 -9 16 -1 21 13 8 32 -4 25 -16 -4 -5 1 -9 9 -9 8 0 18
-5 22 -12 5 -7 2 -8 -7 -3 -11 6 -12 5 -2 -6 11 -11 20 -9 58 9 62 30 57 20
-9 -17 -30 -17 -80 -52 -113 -77 -64 -50 -50 -49 -193 -18 -65 15 -188 18
-890 23 -448 4 -792 8 -765 9 28 2 70 5 95 8 56 6 52 6 129 -2 54 -6 63 -5 56
7 -7 12 -6 12 7 1 22 -17 311 -16 302 1 -5 8 -2 7 7 0 15 -15 33 -17 25 -5 -3
5 26 9 64 8 39 0 70 -4 70 -9 0 -4 6 -5 13 0 18 11 37 12 37 2 0 -5 11 -9 25
-9 14 0 25 4 25 8 0 5 18 9 40 9 22 0 40 -3 40 -6 0 -4 9 -7 19 -7 11 0 17 4
15 8 -3 4 -3 8 0 8 2 0 12 3 22 7 12 4 15 3 10 -5 -4 -7 -2 -12 3 -12 6 0 11
6 11 13 0 6 5 4 11 -5 5 -10 18 -18 27 -17 14 0 14 2 -3 10 -15 7 -9 8 22 5
24 -2 40 0 38 5 -3 4 52 6 122 3 71 -2 134 -4 141 -4 7 0 10 -4 7 -10 -4 -7 3
-7 20 0 14 5 24 6 21 1 -3 -4 20 -9 52 -10 31 0 82 -5 112 -11 101 -17 111
-18 107 -6 -3 6 -10 10 -17 8 -7 -2 -10 3 -7 12 6 16 -12 26 -57 32 -36 5 -96
26 -96 34 0 11 -125 8 -139 -3 -12 -10 -13 -9 -6 2 6 11 4 13 -8 8 -8 -3 -21
1 -27 9 -7 8 -18 14 -24 14 -6 0 -5 -4 3 -9 9 -6 10 -11 2 -15 -6 -4 -11 -2
-11 5 0 10 -3 10 -12 1 -8 -8 -8 -15 2 -27 8 -10 9 -15 1 -15 -6 0 -11 6 -11
13 0 8 -4 7 -11 -3 -8 -12 -9 -11 -5 6 5 15 2 21 -11 21 -10 0 -21 -5 -25 -11
-5 -7 -8 -4 -8 6 0 23 -26 34 -73 33 -21 -1 -40 1 -42 5 -4 7 13 10 52 10 12
0 25 5 28 10 7 12 -43 33 -61 26 -8 -3 -16 -1 -19 5 -4 5 1 12 9 15 9 3 16 11
16 17 0 7 -4 7 -12 -1 -14 -14 -42 -16 -33 -2 3 6 -1 7 -10 4 -14 -6 -14 -8 2
-20 14 -11 14 -14 3 -12 -8 2 -18 7 -22 13 -4 5 -22 11 -40 12 -25 3 -29 1
-18 -7 9 -6 10 -10 3 -10 -6 0 -14 4 -18 10 -4 6 -15 6 -31 0 -17 -7 -23 -7
-19 0 3 6 2 10 -4 10 -5 0 -16 3 -25 6 -9 3 -16 1 -16 -6 0 -6 4 -9 9 -5 5 3
12 1 15 -4 6 -10 -63 -26 -72 -17 -3 3 0 6 6 6 7 0 12 4 12 9 0 9 -48 6 -58
-3 -3 -3 9 -11 26 -17 18 -6 32 -17 32 -25 0 -17 -10 -17 -46 -4 -20 8 -29 8
-34 0 -5 -8 -9 -4 -12 8 -3 11 -15 25 -28 32 -20 11 -21 10 -10 -9 11 -22 8
-24 -28 -14 -18 4 -20 8 -10 14 9 6 3 9 -17 9 -16 0 -37 -5 -45 -10 -13 -9
-13 -12 3 -21 21 -12 22 -29 2 -29 -18 0 -20 -36 -2 -43 8 -4 8 -6 0 -6 -6 -1
-18 13 -27 29 -12 26 -12 30 0 30 21 0 17 21 -6 27 -11 3 -20 8 -20 12 0 10
-43 6 -64 -6 -15 -8 -28 -7 -52 5 -29 13 -34 13 -48 -1 -9 -8 -16 -22 -16 -29
0 -10 -3 -10 -9 2 -6 8 -7 18 -4 24 4 5 -7 6 -28 2 -19 -4 -42 -9 -53 -11 -27
-6 -33 -15 -16 -25 11 -7 11 -10 2 -10 -7 0 -15 7 -18 15 -4 8 -11 12 -18 8
-6 -4 -15 -8 -21 -8 -5 0 -11 -12 -13 -28 -2 -15 -8 -25 -13 -21 -5 3 -7 9 -4
14 3 4 -6 7 -20 5 -14 -1 -25 3 -25 9 0 6 -6 4 -13 -5 -11 -15 -15 -15 -32 -3
-14 10 -22 11 -32 2 -10 -8 -12 -7 -8 5 4 8 2 18 -4 22 -6 3 -11 2 -11 -2 0
-5 -11 -9 -24 -9 -14 0 -22 4 -19 10 4 5 -3 7 -15 4 -12 -4 -22 -3 -22 2 0 4
-12 7 -27 7 -66 0 -143 7 -143 13 0 10 558 47 965 64 164 7 1449 -5 1490 -13z
m-2482 -58 c-13 -2 -33 -2 -45 0 -13 2 -3 4 22 4 25 0 35 -2 23 -4z m3245 -3
c-56 -10 -71 -17 -62 -32 4 -6 2 -8 -4 -4 -6 3 -13 2 -16 -3 -4 -5 -2 -12 4
-16 11 -7 -5 -28 -30 -38 -10 -3 -6 -6 9 -6 48 -2 12 -12 -75 -21 -49 -5 -109
-12 -134 -16 -42 -5 -44 -5 -25 10 11 8 17 16 13 17 -5 1 -11 2 -15 3 -17 3
-50 32 -56 50 -7 16 -14 18 -74 11 -37 -4 -77 -13 -88 -21 -10 -8 -15 -14 -9
-14 6 0 21 -10 34 -22 14 -13 28 -22 32 -20 5 1 7 -4 6 -10 -2 -10 15 -12 67
-11 l70 3 -91 -25 c-173 -46 -319 -114 -426 -196 -263 -205 -432 -482 -784
-1286 l-88 -203 -40 -1 c-23 0 -92 -4 -154 -7 -61 -4 -112 -6 -112 -5 0 0 17
39 39 85 59 128 102 220 118 257 17 40 28 36 12 -5 -7 -16 -12 -36 -12 -44 0
-27 27 -110 36 -110 4 0 5 10 1 23 -6 18 -2 17 20 -9 14 -18 26 -37 26 -43 0
-7 7 -14 15 -17 8 -4 12 -11 8 -18 -4 -6 1 -5 10 3 15 12 21 9 18 -11 0 -5 6
-8 15 -8 8 0 12 -4 9 -10 -3 -5 -4 -10 -1 -10 7 0 35 57 67 140 33 85 34 91
15 84 -9 -4 -13 3 -13 20 0 14 -7 33 -14 43 -8 9 -13 24 -11 33 2 10 -5 20
-14 24 -16 6 -15 8 2 21 15 11 17 16 7 26 -7 7 -13 10 -13 5 0 -4 -7 0 -16 9
-9 9 -23 14 -31 11 -8 -3 -11 -1 -8 4 13 21 -17 9 -40 -16 -14 -15 -25 -24
-25 -20 0 18 132 266 142 266 6 0 4 -10 -5 -23 -21 -33 -37 -96 -26 -103 5 -3
7 -9 4 -14 -3 -4 3 -11 12 -14 13 -5 14 -9 5 -15 -10 -6 -9 -11 3 -21 14 -12
18 -11 26 1 7 12 9 12 9 -1 0 -9 -6 -22 -12 -29 -11 -11 -9 -12 9 -2 17 9 22
8 27 -6 4 -9 9 -13 13 -10 3 4 13 1 21 -6 13 -10 15 -9 8 3 -4 8 2 4 13 -9 20
-22 27 -16 21 14 -1 6 2 7 6 3 4 -5 16 11 26 34 21 48 32 118 17 118 -5 0 -8
6 -7 13 2 6 -3 11 -11 9 -10 -2 -12 4 -7 25 4 18 3 23 -3 14 -12 -19 -34 -9
-36 17 -1 11 2 19 7 16 4 -3 8 0 8 5 0 15 -27 14 -34 -1 -5 -10 -7 -10 -12 0
-3 6 -10 10 -15 6 -5 -3 -9 2 -9 10 0 9 -5 16 -12 16 -6 0 -8 -3 -5 -7 4 -3
-2 -13 -14 -21 -11 -8 -22 -12 -24 -10 -5 5 139 271 172 318 l25 35 -7 -30
c-11 -43 -8 -68 8 -80 8 -6 16 -19 18 -29 2 -10 13 -24 24 -30 25 -14 36 -28
31 -41 -2 -6 7 -10 20 -10 18 1 33 16 58 58 49 81 52 94 24 117 -13 11 -19 19
-14 20 6 0 -6 16 -25 36 -29 32 -31 35 -9 24 l25 -13 -19 22 c-11 12 -26 19
-33 17 -7 -3 -15 0 -19 5 -4 7 -23 -5 -46 -28 l-40 -38 57 94 c160 267 311
416 513 508 92 42 338 117 358 109 8 -3 14 -2 14 2 0 8 69 23 190 42 108 16
120 17 265 17 101 1 127 -2 93 -7z m165 3 c-13 -2 -35 -2 -50 0 -16 2 -5 4 22
4 28 0 40 -2 28 -4z m-3538 -12 c-49 -8 -65 -17 -65 -37 0 -9 5 -13 13 -9 6 4
3 -1 -7 -9 -11 -9 -15 -16 -9 -16 7 0 15 -9 18 -21 6 -17 9 -18 23 -7 12 10
14 10 8 1 -4 -8 -1 -13 8 -13 9 0 16 -7 16 -15 0 -8 -7 -15 -16 -15 -9 0 -12
5 -8 13 5 8 2 8 -9 -2 -9 -7 -17 -9 -17 -4 0 5 -21 9 -47 9 -56 0 -106 11 -99
22 3 5 -4 14 -16 21 -11 7 -17 8 -14 2 4 -5 -15 2 -41 16 -27 14 -49 25 -50
24 -2 -1 -11 -1 -20 0 -39 2 12 11 153 28 82 10 165 19 184 19 l35 -1 -40 -6z
m925 -10 c0 -4 -9 -7 -20 -8 -11 -1 -20 4 -20 12 0 8 7 11 20 8 11 -3 20 -8
20 -12z m2903 -8 c-7 -2 -21 -2 -30 0 -10 3 -4 5 12 5 17 0 24 -2 18 -5z
m-2713 -23 c-19 -13 -30 -13 -30 0 0 6 10 10 23 10 18 0 19 -2 7 -10z m330 -5
c0 -6 -15 -11 -34 -11 -21 0 -32 4 -29 11 2 7 17 12 33 12 17 0 30 -5 30 -12z
m2493 8 c-7 -2 -19 -2 -25 0 -7 3 -2 5 12 5 14 0 19 -2 13 -5z m-2863 -7 c0
-2 -7 -7 -16 -10 -8 -3 -12 -2 -9 4 6 10 25 14 25 6z m3001 -20 c153 -39 239
-66 239 -76 0 -6 -10 -10 -23 -10 -12 0 -28 -9 -35 -20 -7 -11 -17 -20 -23
-20 -5 0 -7 5 -4 10 9 15 -11 12 -24 -3 -6 -8 -7 -17 -3 -22 4 -4 -2 -5 -13
-2 -11 3 -41 11 -68 18 -43 10 -46 13 -30 25 16 12 15 13 -14 14 -30 0 -63 21
-63 40 0 4 7 7 16 6 9 0 18 5 20 12 1 7 1 9 -2 4 -2 -4 -22 -6 -44 -4 -23 2
-47 -1 -55 -8 -9 -7 -18 -10 -22 -6 -10 9 29 35 44 29 7 -3 13 2 13 10 0 9 -8
18 -17 20 -15 4 -15 5 -2 6 9 0 59 -10 110 -23z m-3176 -6 c3 -5 1 -10 -4 -10
-6 0 -11 5 -11 10 0 6 2 10 4 10 3 0 8 -4 11 -10z m132 4 c-3 -3 -12 -4 -19
-1 -8 3 -5 6 6 6 11 1 17 -2 13 -5z m760 -9 c0 -8 -6 -15 -14 -15 -7 0 -13 7
-13 15 0 8 6 15 13 15 8 0 14 -7 14 -15z m-2332 -7 c-16 -5 -43 -11 -60 -13
-16 -2 -55 -7 -85 -11 -37 -4 -52 -3 -45 4 13 13 106 30 170 30 47 0 48 0 20
-10z m1622 1 c-14 -8 -22 -8 -30 0 -8 8 -3 11 19 11 25 -1 27 -2 11 -11z m443
1 c0 -5 -13 -10 -30 -10 -16 0 -30 5 -30 10 0 6 14 10 30 10 17 0 30 -4 30
-10z m380 -14 c0 -3 -4 -8 -10 -11 -5 -3 -10 -1 -10 4 0 6 5 11 10 11 6 0 10
-2 10 -4z m1547 -2 c-3 -3 -12 -4 -19 -1 -8 3 -5 6 6 6 11 1 17 -2 13 -5z
m-4197 -14 c0 -5 -4 -10 -10 -10 -5 0 -10 5 -10 10 0 6 5 10 10 10 6 0 10 -4
10 -10z m-37 -7 c-7 -2 -19 -2 -25 0 -7 3 -2 5 12 5 14 0 19 -2 13 -5z m4787
-4 c0 -4 -9 -6 -20 -4 -30 6 -24 -12 6 -19 15 -4 24 -9 22 -12 -3 -2 -23 0
-44 5 -21 5 -33 9 -26 10 6 1 12 7 12 15 0 8 10 14 25 14 14 0 25 -4 25 -9z
m-3960 -9 c0 -5 -2 -10 -4 -10 -3 0 -8 5 -11 10 -3 6 -1 10 4 10 6 0 11 -4 11
-10z m3773 3 c-7 -2 -19 -2 -25 0 -7 3 -2 5 12 5 14 0 19 -2 13 -5z m-3556 -9
c-3 -3 -12 -4 -19 -1 -8 3 -5 6 6 6 11 1 17 -2 13 -5z m3651 -1 c-10 -2 -26
-2 -35 0 -10 3 -2 5 17 5 19 0 27 -2 18 -5z m149 -29 c-3 -3 -12 -4 -19 -1 -8
3 -5 6 6 6 11 1 17 -2 13 -5z m-447 -85 c241 -17 337 -33 360 -61 41 -50 147
-238 192 -343 71 -162 158 -457 158 -534 0 -11 -47 -117 -105 -235 -84 -173
-109 -217 -127 -220 -47 -11 -909 -85 -916 -80 -2 1 2 20 9 41 21 60 16 180
-8 228 -26 50 -47 69 -104 94 -87 39 -492 102 -656 103 -74 1 -100 -3 -137
-21 -56 -27 -121 -99 -164 -178 -17 -32 -39 -66 -49 -75 -18 -16 -173 -90
-173 -83 0 24 137 331 235 525 141 281 300 502 437 608 248 191 582 265 1048
231z m-1755 -40 c77 -6 142 -13 145 -16 2 -2 0 -10 -5 -17 -260 -364 -488
-777 -768 -1391 l-64 -140 -2413 -3 -2414 -2 44 46 c25 25 97 92 160 148 520
463 989 812 1531 1138 380 229 375 228 739 237 483 13 2894 13 3045 0z m2925
-68 c12 -8 10 -10 -8 -8 -13 1 -28 10 -34 20 -8 16 -7 17 9 8 10 -6 25 -15 33
-20z m-430 -58 c185 -78 344 -177 495 -307 94 -81 255 -251 255 -268 0 -4 -89
-8 -197 -8 -248 0 -335 -16 -429 -80 l-31 -20 -23 97 c-44 192 -171 516 -239
612 -43 61 -33 59 169 -26z m-1723 -998 c209 -26 408 -69 398 -86 -9 -14 -159
-67 -238 -83 -173 -36 -439 -55 -550 -40 l-45 7 39 76 c44 86 54 100 89 124
31 22 141 23 307 2z m-1104 -26 c-8 -16 -17 -28 -20 -25 -6 5 23 56 31 56 3 0
-2 -14 -11 -31z m-5173 -9 c-99 -22 -146 -30 -179 -31 -20 0 -30 -3 -23 -6 6
-2 12 -8 12 -13 0 -9 -47 -20 -54 -12 -8 8 -77 12 -72 4 2 -4 -22 -8 -53 -8
-45 -2 -51 0 -31 8 70 27 308 66 400 66 l35 0 -35 -8z m97 -105 c-4 -8 -13
-15 -22 -15 -13 0 -12 3 2 20 19 22 29 19 20 -5z m-73 -66 c-10 -12 -32 -28
-49 -37 -28 -14 -29 -14 -16 1 7 10 19 17 27 17 7 0 21 11 31 24 10 13 20 22
22 20 2 -2 -4 -13 -15 -25z m7540 -401 c-64 -128 -117 -234 -119 -236 -2 -3
-236 -31 -245 -30 -3 1 -12 -1 -20 -4 -19 -7 -293 -51 -455 -73 -66 -9 -236
-34 -378 -56 -141 -21 -283 -41 -315 -44 -31 -2 -66 -7 -78 -10 -20 -6 -21 -2
-27 82 -8 115 -38 230 -84 323 -21 41 -39 78 -41 83 -2 4 137 7 310 7 398 1
442 8 608 100 22 13 54 20 87 20 47 0 246 17 658 55 77 7 157 13 178 14 l37 1
-116 -232z m-1885 -25 c66 -113 110 -273 111 -404 l0 -47 -162 -31 c-90 -17
-248 -44 -353 -61 -104 -16 -238 -38 -297 -50 l-107 -20 -81 21 c-165 42 -377
41 -531 -4 -198 -58 -322 -126 -482 -262 -42 -36 -79 -65 -81 -65 -3 0 -36 20
-73 44 -122 78 -222 122 -343 151 -86 20 -379 20 -515 0 -55 -8 -104 -14 -110
-14 -26 -1 383 232 570 324 397 195 718 305 1090 374 402 75 710 102 1207 109
l117 2 40 -67z m-3269 38 c0 -9 -95 -35 -114 -31 -5 1 -12 -3 -15 -8 -3 -5
-64 -28 -136 -52 -462 -152 -1066 -434 -1540 -719 -143 -87 -175 -114 -175
-153 0 -39 43 -82 74 -74 13 3 91 48 172 99 82 51 204 124 271 161 245 135
747 369 968 451 334 125 628 217 913 286 l202 49 483 0 c265 0 488 -4 495 -8
19 -12 -166 -60 -198 -52 -14 4 -34 4 -45 -1 -16 -6 -13 -8 15 -9 34 -1 33 -2
-20 -19 -372 -123 -911 -397 -1320 -671 -47 -32 -108 -69 -135 -83 -43 -23
-308 -105 -495 -154 -30 -8 -157 -43 -283 -79 -389 -111 -939 -231 -1261 -274
-234 -31 -464 -39 -1126 -39 -898 0 -1185 14 -1374 66 -52 15 -57 18 -41 30
15 10 21 10 34 0 10 -8 13 -9 8 0 -4 6 -3 14 3 18 5 3 10 15 10 26 0 12 -5 17
-11 14 -16 -10 16 59 50 109 45 65 151 168 167 162 8 -3 14 -1 14 4 0 5 9 12
20 15 11 4 18 10 16 14 -7 11 28 38 43 33 10 -3 12 1 9 14 -5 21 17 50 26 35
3 -5 15 -11 26 -14 17 -4 19 -3 9 9 -6 7 -15 11 -20 8 -5 -3 -9 -2 -9 3 0 17
121 120 185 158 38 22 70 38 70 35 1 -5 74 47 85 60 34 43 381 222 450 233 8
2 30 10 49 20 38 19 55 22 46 7 -3 -5 -2 -10 3 -10 5 0 12 9 15 20 3 13 13 20
29 20 23 -1 23 -1 2 -13 -12 -7 -19 -18 -16 -25 3 -10 8 -9 23 4 12 11 19 13
19 5 0 -7 5 -9 10 -6 8 5 7 11 -1 21 -9 11 -3 21 25 48 58 54 564 248 609 233
5 -1 -62 -38 -149 -81 -321 -157 -674 -385 -942 -609 -88 -74 -102 -92 -102
-129 0 -29 34 -68 60 -68 10 0 77 47 148 104 139 111 362 267 557 388 225 141
556 293 844 388 l116 39 1078 0 c656 1 1077 -3 1077 -8z m37 3 c-3 -3 -12 -4
-19 -1 -8 3 -5 6 6 6 11 1 17 -2 13 -5z m2078 -716 c-116 -21 -186 -42 -295
-85 -154 -62 -176 -73 -314 -164 -65 -44 -122 -79 -127 -79 -22 0 -4 23 54 71
209 175 435 268 652 267 79 0 79 -1 30 -10z m-1520 -205 c-133 -179 -337 -403
-427 -469 -64 -47 -149 -66 -483 -109 -465 -58 -945 -94 -1013 -76 -42 12
-282 165 -282 180 0 4 30 13 68 20 224 41 717 171 1231 326 367 110 631 160
860 164 l73 1 -27 -37z m309 -4 c94 -31 194 -81 252 -126 l34 -25 -44 -62
c-190 -265 -309 -612 -336 -979 -7 -88 -18 -161 -29 -192 -40 -108 -46 -121
-69 -158 -14 -24 -29 -37 -37 -33 -8 3 -17 1 -21 -5 -3 -6 -11 -3 -20 8 -8 11
-13 13 -14 6 0 -7 -4 -13 -10 -13 -5 0 -7 7 -4 15 4 10 0 13 -16 10 -25 -5
-53 -37 -39 -45 5 -3 -5 -14 -21 -24 -36 -20 -39 -36 -7 -36 20 -1 21 -2 5
-14 -18 -13 -26 -32 -9 -22 4 3 6 -6 3 -19 -4 -24 -12 -29 -41 -25 -8 1 -17
-3 -20 -8 -10 -15 -55 -27 -46 -12 4 7 -4 4 -19 -5 -14 -9 -23 -22 -19 -29 4
-7 1 -7 -7 1 -10 10 -11 15 -1 27 9 11 9 16 0 22 -7 4 -9 3 -6 -3 22 -36 -82
-40 -113 -5 -8 10 -14 15 -13 13 4 -7 -19 -31 -29 -31 -6 0 -5 7 2 15 9 10 9
15 1 15 -10 0 -15 -12 -12 -35 0 -6 -14 -17 -31 -24 -18 -8 -27 -16 -20 -19
10 -3 10 -7 0 -20 -9 -11 -5 -10 17 4 16 10 26 14 22 7 -5 -7 0 -16 12 -23 16
-8 22 -6 30 7 6 10 11 13 11 6 0 -6 -4 -14 -9 -17 -10 -6 -3 -46 8 -44 26 3
32 -3 17 -18 -21 -20 -58 -31 -191 -54 -126 -23 -158 -25 -135 -10 10 6 11 10
3 10 -7 0 -13 7 -13 16 0 8 -4 12 -10 9 -6 -3 -7 1 -4 10 5 11 2 16 -7 15 -25
-4 -40 0 -35 8 9 15 -36 6 -48 -10 -6 -8 -19 -14 -28 -12 -10 1 -18 -2 -18 -7
0 -5 -13 -9 -29 -9 -17 0 -33 -5 -37 -12 -4 -7 -3 -8 4 -4 7 4 12 2 12 -3 0
-6 -6 -11 -12 -11 -9 0 -8 -4 2 -11 12 -8 12 -9 -5 -7 -11 1 -25 -1 -32 -5 -6
-4 -14 -3 -18 3 -4 7 -14 6 -28 -2 -19 -9 -20 -9 -10 3 9 12 1 14 -55 13 -37
0 -121 -4 -187 -9 -66 -5 -133 -8 -150 -8 -16 1 -24 -1 -17 -4 16 -6 6 -23
-14 -23 -8 0 -12 4 -9 10 3 5 -9 9 -30 8 -20 -1 -35 -6 -35 -13 0 -17 -37 -23
-140 -24 -47 -1 -149 -4 -227 -7 -79 -4 -143 -2 -143 2 0 5 7 18 15 28 21 27
19 32 -15 46 -47 20 -29 22 41 5 114 -27 726 -12 944 22 55 9 112 16 127 17
14 1 24 4 22 7 -2 4 11 13 28 20 86 36 198 190 301 417 90 195 111 264 112
362 0 103 -17 134 -97 174 -44 22 -65 26 -137 26 -52 0 -120 -8 -171 -21 -47
-11 -229 -51 -405 -89 -176 -38 -435 -94 -575 -125 -140 -31 -320 -69 -400
-85 -604 -122 -584 -117 -603 -141 -12 -16 -17 -31 -12 -49 3 -14 6 -30 7 -37
1 -7 5 -10 9 -7 4 2 10 0 13 -5 3 -5 29 -12 56 -16 28 -4 50 -10 50 -13 0 -12
-114 -4 -118 7 -5 14 -42 14 -42 1 0 -5 5 -10 11 -10 5 0 7 -5 4 -10 -4 -6
-11 -8 -16 -5 -14 9 -23 -23 -10 -39 6 -7 8 -16 4 -19 -3 -4 2 -9 11 -13 9 -3
16 -10 16 -14 0 -14 105 -117 126 -122 17 -4 20 -1 16 24 -2 16 -13 34 -23 42
-10 7 -16 16 -12 19 3 4 0 7 -9 7 -19 0 -81 56 -84 75 -3 17 -2 17 22 8 16 -6
16 -7 -2 -14 -15 -6 -12 -8 14 -8 17 -1 32 -6 32 -12 0 -5 -5 -7 -12 -3 -7 4
-8 3 -4 -4 10 -16 39 -15 33 1 -3 7 3 13 13 13 10 0 18 -4 17 -9 -1 -5 3 -11
9 -14 6 -2 14 7 16 21 3 16 0 27 -9 30 -7 2 -5 3 4 2 10 -1 26 7 36 17 18 18
20 18 36 3 10 -11 12 -19 6 -24 -12 -8 -18 -32 -9 -32 4 0 13 8 20 18 13 16
14 16 7 -2 -4 -13 -2 -17 8 -14 8 3 14 12 13 20 -1 8 4 15 11 15 7 0 10 -9 7
-21 -4 -21 -4 -21 12 -1 15 19 16 19 9 1 -4 -13 -3 -17 5 -12 7 4 12 14 12 22
0 8 3 13 8 13 19 -3 25 2 12 11 -12 8 -10 10 10 10 18 0 36 -13 60 -44 128
-158 256 -288 332 -338 27 -17 46 -33 43 -36 -2 -2 -27 12 -55 32 -27 20 -55
36 -60 36 -6 0 -10 5 -10 11 0 5 -4 8 -9 5 -5 -3 -19 5 -32 18 -22 21 -85 43
-74 25 7 -11 -6 -40 -15 -34 -15 10 -90 -38 -90 -57 0 -11 -4 -16 -10 -13 -5
3 -21 -5 -35 -19 -14 -15 -30 -26 -35 -26 -6 0 -10 -5 -10 -11 0 -5 5 -7 11
-3 8 4 9 -1 4 -15 -4 -13 -1 -28 6 -37 6 -8 9 -17 6 -20 -10 -10 -72 54 -187
191 -190 228 -302 347 -362 386 -101 65 -85 64 -1138 64 l-945 0 -56 -23 c-73
-29 -134 -83 -194 -171 -27 -39 -52 -68 -56 -65 -4 2 -11 -1 -15 -7 -4 -8 -3
-9 4 -5 23 14 12 -7 -63 -121 -47 -72 -79 -111 -87 -107 -6 4 -8 3 -5 -3 8
-13 -35 -92 -62 -117 -15 -14 -25 -15 -52 -7 -33 9 -33 9 -6 10 15 1 27 6 27
12 0 7 8 18 18 26 9 8 11 12 5 8 -8 -4 -11 -1 -7 9 3 8 15 17 28 20 20 5 22
11 22 76 -1 52 -5 73 -16 80 -8 5 -11 10 -6 10 5 0 3 6 -3 14 -7 8 -18 13 -25
12 -22 -3 -46 -27 -39 -40 4 -8 3 -8 -6 0 -10 9 -4 29 29 90 33 60 107 192
126 222 1 1 25 -6 53 -18 66 -26 73 -25 109 5 17 14 34 25 38 25 5 0 2 -5 -6
-10 -9 -6 -11 -10 -3 -10 7 0 10 -7 7 -15 -4 -8 -1 -15 6 -15 6 0 9 4 5 9 -3
5 -1 12 5 16 5 3 10 1 10 -6 0 -6 16 5 36 26 25 27 32 41 25 48 -6 6 -11 19
-11 29 0 10 -4 18 -9 18 -5 0 -12 10 -16 23 -4 13 -8 17 -12 10 -6 -17 -23
-16 -23 1 0 8 -7 16 -15 20 -8 3 -15 11 -15 18 0 9 3 9 10 -2 5 -8 13 -11 17
-6 4 5 3 11 -4 13 -6 2 -24 15 -40 29 -27 24 -28 24 -31 4 -3 -16 -9 -19 -23
-15 -11 4 -19 2 -19 -4 0 -6 7 -11 15 -11 22 0 18 -17 -5 -23 -10 -3 -21 0
-23 7 -2 6 -8 8 -12 4 -11 -11 55 -47 74 -41 9 4 13 2 8 -2 -4 -5 3 -16 15
-24 13 -9 24 -27 26 -41 2 -24 2 -24 -17 5 -14 24 -45 41 -147 84 -71 30 -252
114 -402 187 l-272 132 0 95 c0 52 3 128 6 170 l7 76 65 -25 c82 -31 195 -60
291 -74 114 -18 136 -6 259 143 56 67 107 130 114 139 12 15 20 14 103 -12
200 -62 499 -79 1350 -79 831 0 1158 17 1475 78 l103 20 91 -73 c203 -163 291
-211 405 -222 88 -9 855 54 1116 92 206 30 339 67 420 119 103 66 382 376 498
553 23 34 47 62 55 62 8 0 55 -14 106 -31z m-6155 -134 c42 -75 156 -192 241
-249 39 -26 70 -50 70 -54 0 -17 -183 -212 -198 -212 -74 1 -382 94 -382 116
0 31 65 189 112 270 64 112 111 184 119 184 4 0 21 -25 38 -55z m611 -195 c0
-5 -4 -10 -10 -10 -5 0 -10 5 -10 10 0 6 5 10 10 10 6 0 10 -4 10 -10z m7005
-260 c28 -13 82 -56 121 -95 139 -139 243 -407 263 -678 37 -496 -134 -950
-407 -1084 -78 -38 -181 -39 -262 -2 -186 87 -332 346 -385 684 -22 136 -16
426 10 545 29 130 83 282 132 370 64 114 185 238 263 268 77 30 194 27 265 -8z
m-1805 -1131 c0 -6 -4 -7 -10 -4 -5 3 -10 11 -10 16 0 6 5 7 10 4 6 -3 10 -11
10 -16z m-70 -45 c0 -8 -4 -12 -10 -9 -5 3 -10 10 -10 16 0 5 5 9 10 9 6 0 10
-7 10 -16z m-88 -26 c-7 -7 -12 -8 -12 -2 0 14 12 26 19 19 2 -3 -1 -11 -7
-17z m68 8 c0 -2 -7 -6 -15 -10 -8 -3 -15 -1 -15 4 0 6 7 10 15 10 8 0 15 -2
15 -4z m-36 -24 c3 -5 -1 -9 -9 -9 -8 0 -12 4 -9 9 3 4 7 8 9 8 2 0 6 -4 9 -8z
m-5530 -46 c-3 -9 -10 -16 -15 -16 -6 0 -5 9 1 21 13 24 24 20 14 -5z m3405
-49 c9 -11 4 -13 -22 -12 -17 2 -38 -2 -45 -8 -9 -7 -11 -6 -6 7 5 13 14 16
30 12 14 -4 24 -2 24 4 0 14 5 13 19 -3z m-3452 -20 c0 -8 -6 -14 -14 -14 -9
0 -10 4 -2 14 6 7 12 13 14 13 1 0 2 -6 2 -13z m-360 -62 c0 -8 -4 -15 -9 -15
-5 0 -6 -4 -3 -10 3 -5 1 -10 -5 -10 -7 0 -9 7 -6 16 3 9 6 20 6 25 0 5 4 9 8
9 5 0 9 -7 9 -15z m4658 -53 c-3 -3 -11 0 -18 7 -9 10 -8 11 6 5 10 -3 15 -9
12 -12z m1529 -382 c50 -121 166 -277 257 -347 27 -20 49 -41 49 -45 0 -4
-930 -8 -2067 -8 l-2067 0 45 37 c118 98 219 226 280 357 l31 66 1725 -2 1725
-3 22 -55z"/>
<path d="M10615 12230 c-3 -6 1 -7 9 -4 18 7 21 14 7 14 -6 0 -13 -4 -16 -10z"/>
<path d="M11232 12214 c-16 -18 -15 -31 3 -31 8 0 12 4 9 9 -3 4 -1 8 5 8 5 0
11 -6 14 -12 3 -9 8 -10 15 -3 7 7 4 15 -11 26 -18 14 -24 14 -35 3z"/>
<path d="M11302 12183 c2 -10 -3 -17 -9 -15 -7 1 -13 -2 -13 -7 0 -20 16 -18
38 4 19 20 20 24 6 29 -23 9 -25 8 -22 -11z"/>
<path d="M10130 12184 c0 -1 6 -7 14 -13 10 -9 15 -8 19 2 3 8 -3 13 -14 13
-11 0 -19 -1 -19 -2z"/>
<path d="M11437 12169 c7 -7 15 -10 18 -7 3 3 -2 9 -12 12 -14 6 -15 5 -6 -5z"/>
<path d="M11370 12160 c-8 -5 -12 -12 -9 -15 4 -3 12 1 19 10 14 17 11 19 -10
5z"/>
<path d="M11720 12053 c0 -6 8 -17 18 -24 16 -13 16 -13 2 6 -8 11 -16 22 -17
24 -2 2 -3 0 -3 -6z"/>
<path d="M12276 12071 c-4 -6 -11 -9 -16 -6 -5 3 -17 2 -27 -3 -10 -6 -31 -14
-47 -18 -16 -5 -29 -13 -29 -19 1 -5 -5 -17 -13 -27 -14 -14 -13 -19 8 -43 13
-15 35 -33 50 -41 25 -13 32 -12 73 7 25 12 51 29 58 39 7 9 21 22 32 28 17
10 18 11 3 12 -10 0 -18 5 -18 11 0 5 -5 7 -10 4 -6 -3 -13 1 -16 9 -3 9 -11
13 -17 9 -5 -3 -7 -2 -4 4 4 6 0 18 -7 28 -9 13 -15 15 -20 6z m-95 -124 c-10
-9 -11 -8 -5 6 3 10 9 15 12 12 3 -3 0 -11 -7 -18z"/>
<path d="M11822 11790 c-11 -11 -35 -41 -53 -66 l-32 -47 24 -19 c13 -11 18
-16 10 -12 -10 5 -12 3 -7 -5 5 -7 19 -16 32 -21 14 -6 21 -15 18 -23 -3 -8 2
-20 10 -27 9 -7 13 -17 9 -24 -3 -6 -3 -8 2 -4 4 4 13 4 19 -1 7 -5 30 15 63
55 48 57 52 64 37 78 -8 9 -12 16 -8 16 4 0 -1 6 -11 14 -11 8 -23 12 -27 10
-8 -5 -5 17 5 34 11 16 0 32 -17 26 -8 -3 -16 4 -19 15 -7 26 -27 27 -55 1z
m-20 -152 c-8 -8 -9 -4 -5 13 4 13 8 18 11 10 2 -7 -1 -18 -6 -23z"/>
<path d="M11209 10488 c-7 -24 -5 -40 6 -45 24 -8 36 6 25 28 -9 16 -28 26
-31 17z"/>
<path d="M11167 10454 c-3 -4 -2 -14 3 -24 5 -10 6 -20 2 -24 -3 -4 1 -4 11 0
9 3 17 10 17 16 0 5 -4 6 -10 3 -9 -6 -14 8 -11 28 1 9 -4 9 -12 1z"/>
<path d="M11084 10415 c11 -24 34 -28 53 -9 10 10 9 14 -5 20 -9 4 -26 8 -38
9 -17 1 -19 -2 -10 -20z m40 -6 c-3 -5 -10 -7 -15 -3 -5 3 -7 10 -3 15 3 5 10
7 15 3 5 -3 7 -10 3 -15z"/>
<path d="M11152 10380 c14 -22 24 -19 15 5 -4 8 -11 15 -17 15 -6 0 -6 -7 2
-20z"/>
<path d="M11071 10374 c0 -11 3 -14 6 -6 3 7 2 16 -1 19 -3 4 -6 -2 -5 -13z"/>
<path d="M11135 10370 c3 -5 8 -10 11 -10 2 0 4 5 4 10 0 6 -5 10 -11 10 -5 0
-7 -4 -4 -10z"/>
<path d="M13858 12073 c6 -2 10 -9 6 -14 -3 -5 8 -8 26 -7 28 2 29 4 14 15
-10 7 -27 13 -38 12 -12 0 -15 -3 -8 -6z"/>
<path d="M13578 10243 c6 -2 18 -2 25 0 6 3 1 5 -13 5 -14 0 -19 -2 -12 -5z"/>
<path d="M12913 10183 c9 -2 23 -2 30 0 6 3 -1 5 -18 5 -16 0 -22 -2 -12 -5z"/>
<path d="M12665 10159 c-23 -6 -18 -7 24 -4 29 2 56 6 59 9 8 8 -48 5 -83 -5z"/>
<path d="M11983 9803 c0 -7 4 -13 8 -13 4 0 9 6 12 13 3 8 0 14 -7 14 -7 0
-13 -6 -13 -14z"/>
<path d="M7850 10169 c-52 -3 -89 -6 -82 -7 6 -1 11 -5 10 -9 -2 -5 2 -8 7 -8
6 0 9 4 7 9 -2 5 3 5 10 -1 17 -14 60 -20 76 -10 6 5 12 4 12 0 0 -5 -6 -15
-12 -23 -11 -12 -10 -12 5 -1 13 10 20 11 31 2 12 -10 13 -8 8 11 -5 20 -3 21
10 10 9 -7 13 -22 10 -38 -3 -19 -7 -22 -13 -12 -7 10 -9 10 -9 1 0 -7 -9 -13
-19 -13 -11 0 -23 -4 -26 -10 -3 -5 0 -7 8 -4 8 3 20 -2 27 -11 9 -11 9 -15 1
-15 -7 0 -10 -4 -7 -9 7 -11 112 14 109 26 -1 6 8 8 20 6 13 -3 31 4 42 15 11
10 26 17 32 15 6 -2 10 4 8 14 -2 10 -4 24 -4 31 -1 7 -5 10 -11 7 -5 -3 -10
-1 -10 6 0 7 -3 10 -6 6 -3 -3 -17 -2 -30 3 -24 9 -31 3 -16 -16 4 -5 -1 -1
-11 10 -20 22 -37 24 -177 15z"/>
<path d="M6630 10160 c-13 -8 -12 -10 3 -10 9 0 17 5 17 10 0 12 -1 12 -20 0z"/>
<path d="M6800 10155 c0 -17 16 -20 25 -5 4 6 10 8 15 5 5 -3 11 -1 15 5 4 6
-6 10 -24 10 -21 0 -31 -5 -31 -15z"/>
<path d="M6944 10161 c11 -4 32 -7 48 -6 15 1 28 -2 28 -7 0 -5 5 -6 10 -3 25
15 5 25 -47 24 -38 0 -51 -3 -39 -8z"/>
<path d="M9604 10149 c-3 -5 -1 -9 4 -9 11 0 12 -32 1 -46 -6 -7 -3 -17 8 -25
15 -12 16 -12 11 3 -9 21 1 29 21 19 22 -12 115 10 119 28 3 12 0 12 -13 1
-13 -11 -15 -10 -9 4 3 9 11 16 18 16 6 0 5 4 -3 9 -9 6 -22 6 -33 0 -13 -7
-18 -6 -18 3 0 11 -2 11 -8 0 -5 -7 -16 -10 -25 -6 -11 4 -17 1 -17 -7 0 -11
-2 -11 -9 0 -11 17 -39 23 -47 10z"/>
<path d="M5630 10120 c-18 -12 -2 -12 25 0 13 6 15 9 5 9 -8 0 -22 -4 -30 -9z"/>
<path d="M9559 10128 c-1 -2 -3 -14 -4 -28 -3 -19 1 -26 15 -27 10 -1 21 5 24
13 4 10 1 13 -7 9 -6 -4 -4 0 5 8 10 8 15 17 11 20 -6 7 -42 10 -44 5z"/>
<path d="M5915 10020 c-3 -5 -1 -10 4 -10 6 0 11 5 11 10 0 6 -2 10 -4 10 -3
0 -8 -4 -11 -10z"/>
<path d="M9288 9970 c-2 -6 -21 -13 -43 -16 -49 -6 -59 -14 -17 -14 24 0 32
-5 32 -17 0 -10 4 -14 8 -8 4 6 12 10 17 10 6 0 27 6 49 14 28 10 35 16 25 22
-8 5 -21 8 -29 8 -10 0 -8 -3 5 -9 20 -9 20 -9 0 -9 -12 -1 -27 -7 -34 -13
-11 -11 -11 -9 -2 9 6 12 11 24 11 27 0 10 -18 6 -22 -4z"/>
<path d="M7294 9828 c-3 -4 5 -5 17 -3 30 6 36 14 9 12 -12 -1 -24 -5 -26 -9z"/>
<path d="M7286 9798 c3 -4 -7 -10 -21 -14 -14 -3 -25 -13 -25 -21 0 -13 2 -13
17 -2 10 8 14 9 10 2 -4 -6 -2 -15 4 -19 8 -5 9 -3 5 5 -5 8 -3 12 5 10 28 -3
46 1 65 17 10 8 14 13 8 10 -7 -3 -14 1 -18 9 -3 8 -16 14 -30 13 -13 -1 -22
-6 -20 -10z m37 -25 c-7 -2 -21 -2 -30 0 -10 3 -4 5 12 5 17 0 24 -2 18 -5z"/>
<path d="M7185 9733 c-8 -7 -19 -13 -26 -13 -10 0 -10 -3 -1 -12 10 -10 15
-10 21 1 5 7 14 10 20 7 6 -4 11 -3 11 3 0 6 7 8 15 5 10 -4 13 -2 10 8 -7 18
-33 19 -50 1z"/>
<path d="M7130 9690 c-9 -6 -10 -10 -3 -10 6 0 15 5 18 10 8 12 4 12 -15 0z"/>
<path d="M8506 9498 c3 -4 9 -8 15 -8 5 0 9 4 9 8 0 5 -7 9 -15 9 -8 0 -12 -4
-9 -9z"/>
<path d="M6510 9344 c0 -24 2 -25 18 -13 9 7 19 14 20 15 2 1 -6 7 -17 14 -19
10 -21 8 -21 -16z"/>
<path d="M6555 9360 c3 -5 8 -10 11 -10 2 0 4 5 4 10 0 6 -5 10 -11 10 -5 0
-7 -4 -4 -10z"/>
<path d="M6465 9300 c3 -5 8 -10 11 -10 2 0 4 5 4 10 0 6 -5 10 -11 10 -5 0
-7 -4 -4 -10z"/>
<path d="M4040 9220 c0 -5 5 -10 10 -10 6 0 10 5 10 10 0 6 -4 10 -10 10 -5 0
-10 -4 -10 -10z"/>
<path d="M7676 9185 c-3 -8 -1 -15 4 -15 6 0 10 7 10 15 0 8 -2 15 -4 15 -2 0
-6 -7 -10 -15z"/>
<path d="M7627 9176 c-4 -10 0 -12 14 -9 10 3 16 9 13 14 -8 13 -21 11 -27 -5z"/>
<path d="M7590 9149 c0 -5 5 -7 10 -4 6 3 10 8 10 11 0 2 -4 4 -10 4 -5 0 -10
-5 -10 -11z"/>
<path d="M6980 9016 c0 -2 7 -7 16 -10 8 -3 12 -2 9 4 -6 10 -25 14 -25 6z"/>
<path d="M6870 8991 c0 -5 9 -7 20 -4 11 3 20 7 20 9 0 2 -9 4 -20 4 -11 0
-20 -4 -20 -9z"/>
<path d="M6826 8974 c-19 -18 -21 -31 -3 -16 6 6 16 10 22 10 5 0 11 5 13 11
5 16 -14 13 -32 -5z"/>
<path d="M6750 8949 c0 -5 5 -7 10 -4 6 3 10 8 10 11 0 2 -4 4 -10 4 -5 0 -10
-5 -10 -11z"/>
<path d="M8660 8609 c0 -5 5 -7 10 -4 6 3 10 8 10 11 0 2 -4 4 -10 4 -5 0 -10
-5 -10 -11z"/>
<path d="M8252 8532 c-7 -2 -9 -9 -5 -15 5 -9 3 -9 -8 -1 -16 12 -18 12 -74
-1 -22 -4 -47 -8 -55 -6 -8 1 -4 -5 10 -13 15 -9 29 -11 35 -5 14 14 22 11 28
-11 4 -14 14 -20 36 -21 17 -1 37 -2 44 -3 7 -1 11 8 10 21 -2 20 0 21 23 13
17 -7 23 -7 19 0 -3 6 -1 10 4 10 6 0 11 -6 11 -12 0 -9 4 -8 10 2 14 22 12
33 -5 26 -8 -3 -18 0 -22 7 -8 12 -39 17 -61 9z m-37 -42 c3 -5 -1 -10 -10
-10 -9 0 -13 5 -10 10 3 6 8 10 10 10 2 0 7 -4 10 -10z"/>
<path d="M3003 8478 c-2 -18 0 -20 7 -8 12 18 13 30 2 30 -4 0 -9 -10 -9 -22z"/>
<path d="M3030 8480 c0 -10 -3 -27 -6 -37 -4 -13 -3 -14 3 -5 7 10 16 10 37 2
36 -13 59 -13 50 2 -4 7 -3 8 4 4 7 -4 19 -3 28 2 13 7 11 11 -14 21 -17 7
-46 16 -66 21 -31 7 -36 5 -36 -10z"/>
<path d="M3946 8488 c3 -4 -3 -8 -12 -8 -25 0 -10 -11 20 -14 14 -2 23 1 20 5
-3 5 2 9 10 9 9 0 16 5 16 10 0 6 -13 9 -29 8 -16 -1 -27 -6 -25 -10z"/>
<path d="M4052 8488 c3 -7 13 -15 23 -16 10 -2 15 0 11 6 -3 6 2 13 11 15 10
3 3 5 -15 6 -23 1 -32 -3 -30 -11z"/>
<path d="M6032 8495 c9 -10 82 -12 103 -4 13 5 -3 8 -44 8 -35 1 -62 -1 -59
-4z"/>
<path d="M6173 8493 c9 -2 25 -2 35 0 9 3 1 5 -18 5 -19 0 -27 -2 -17 -5z"/>
<path d="M8350 8463 c-8 -3 -25 -14 -36 -25 -15 -13 -24 -16 -29 -9 -3 6 -11
9 -16 5 -5 -3 -7 -10 -3 -15 3 -5 10 -7 15 -4 12 8 11 -6 -1 -25 -9 -13 -10
-13 -10 0 0 13 -1 13 -10 0 -15 -23 -12 -29 13 -24 l22 5 -22 -10 c-13 -6 -23
-13 -23 -16 0 -9 92 -1 109 9 10 6 12 5 7 -2 -5 -9 13 -12 64 -12 40 0 86 -6
107 -15 43 -18 40 -18 40 0 0 8 -4 12 -9 9 -4 -3 -8 1 -8 9 0 16 -27 30 -41
21 -5 -3 -9 2 -9 11 0 9 -9 19 -20 22 -11 3 -20 9 -20 14 0 12 -98 39 -116 32
-8 -3 -13 -12 -12 -21 4 -20 -18 -27 -25 -7 -4 10 5 21 31 34 35 19 36 26 2
14z m30 -77 c0 -2 -7 -6 -15 -10 -8 -3 -15 -1 -15 4 0 6 7 10 15 10 8 0 15 -2
15 -4z"/>
<path d="M7056 8444 c-9 -22 -7 -31 2 -16 7 10 15 8 36 -9 23 -18 32 -20 47
-11 15 10 19 9 19 0 0 -9 3 -8 10 2 5 8 10 10 10 5 0 -13 100 -13 119 -1 10 6
12 6 7 -2 -5 -8 3 -12 23 -12 31 0 32 2 21 50 0 3 -7 -6 -15 -20 -14 -25 -15
-25 -12 -2 2 23 1 23 -116 25 -88 1 -116 -1 -113 -10 3 -7 -1 -10 -9 -6 -8 3
-12 9 -9 14 3 5 1 9 -4 9 -6 0 -13 -7 -16 -16z m101 -10 c-3 -3 -12 -4 -19 -1
-8 3 -5 6 6 6 11 1 17 -2 13 -5z m65 -6 c-9 -9 -15 -9 -24 0 -9 9 -7 12 12 12
19 0 21 -3 12 -12z m62 3 c3 -4 -6 -6 -19 -3 -14 2 -25 6 -25 8 0 8 39 4 44
-5z"/>
<path d="M7420 8330 c0 -5 5 -10 11 -10 5 0 7 5 4 10 -3 6 -8 10 -11 10 -2 0
-4 -4 -4 -10z"/>
<path d="M2966 8298 c3 -5 10 -6 15 -3 13 9 11 12 -6 12 -8 0 -12 -4 -9 -9z"/>
<path d="M2905 8273 c-6 -18 3 -35 16 -28 5 3 6 -1 3 -10 -4 -9 -3 -15 2 -13
14 3 55 -13 50 -20 -2 -4 6 -8 19 -8 15 -1 25 5 28 17 3 13 1 17 -6 12 -7 -4
-6 1 2 10 12 15 11 17 -3 17 -9 0 -16 5 -16 11 0 8 -5 7 -15 -1 -13 -11 -18
-11 -28 0 -9 10 -9 11 2 5 9 -5 12 -3 9 6 -6 19 -56 20 -63 2z"/>
<path d="M9244 8259 c-3 -6 -2 -15 3 -20 5 -5 9 -1 10 11 2 22 -2 25 -13 9z"/>
<path d="M7455 8217 c-16 -12 -31 -25 -33 -28 -2 -4 -12 -5 -23 -2 -10 3 -26
0 -34 -7 -8 -7 -15 -9 -15 -4 0 5 -4 2 -10 -6 -13 -21 6 -29 49 -19 47 10 106
20 160 28 47 6 66 35 30 44 -13 4 -19 0 -20 -11 0 -14 -2 -14 -8 2 -11 28 -60
29 -96 3z"/>
<path d="M9236 8205 c4 -8 8 -15 10 -15 2 0 4 7 4 15 0 8 -4 15 -10 15 -5 0
-7 -7 -4 -15z"/>
<path d="M8656 8128 c-13 -42 -16 -69 -6 -63 5 3 10 -1 10 -9 0 -8 10 -20 22
-27 18 -10 20 -9 14 6 -3 10 -2 23 2 29 5 7 1 18 -11 30 -20 19 -20 18 -14
-20 5 -27 4 -33 -3 -19 -13 29 -12 63 2 67 9 3 9 6 0 12 -7 4 -14 2 -16 -6z"/>
<path d="M6649 8045 c-1 -3 -3 -9 -4 -15 -1 -5 -3 -13 -4 -17 -1 -5 -7 -1 -14
7 -16 20 -79 21 -72 1 5 -12 3 -12 -12 0 -11 9 -14 10 -9 1 4 -7 1 -15 -8 -18
-9 -3 -16 -12 -16 -19 0 -8 -8 -16 -17 -18 -10 -3 -6 -4 9 -4 15 1 26 4 26 7
-2 18 4 23 12 10 6 -10 10 -11 10 -2 0 6 5 12 11 12 5 0 7 -4 4 -10 -4 -6 1
-7 10 -3 16 5 37 9 78 12 10 0 15 5 12 11 -3 6 1 7 9 4 9 -3 16 -3 16 0 0 8
-40 47 -41 41z"/>
<path d="M6705 8020 c-3 -5 1 -10 9 -10 9 0 16 5 16 10 0 6 -4 10 -9 10 -6 0
-13 -4 -16 -10z"/>
<path d="M3444 8000 c1 -8 9 -16 18 -18 17 -3 19 21 3 35 -4 4 -5 3 -1 -4 3
-6 2 -14 -3 -17 -5 -4 -11 -1 -14 6 -2 8 -3 7 -3 -2z"/>
<path d="M3487 7979 c-16 -18 -16 -19 1 -19 28 0 42 13 27 27 -9 8 -16 7 -28
-8z"/>
<path d="M3543 7957 c-2 -4 -9 -5 -14 -2 -5 4 -9 1 -9 -5 0 -6 12 -15 26 -20
32 -13 37 -12 29 0 -3 6 0 10 8 10 8 0 17 6 20 13 5 13 -51 18 -60 4z"/>
<path d="M8910 7816 c0 -2 7 -7 16 -10 8 -3 12 -2 9 4 -6 10 -25 14 -25 6z"/>
<path d="M9050 7730 c0 -5 5 -10 10 -10 6 0 10 5 10 10 0 6 -4 10 -10 10 -5 0
-10 -4 -10 -10z"/>
<path d="M3538 7722 c-23 -4 -31 -38 -19 -77 5 -16 10 -25 10 -20 1 6 11 12
23 12 18 2 20 0 8 -8 -13 -8 -12 -12 6 -27 11 -10 19 -22 17 -28 -2 -5 5 -10
15 -11 11 -1 23 10 31 28 11 24 16 28 27 18 13 -10 13 -8 4 17 -10 25 -8 31 9
45 11 9 17 20 13 23 -3 4 1 4 11 0 10 -4 17 -1 17 6 0 8 -9 11 -26 7 -15 -2
-49 1 -78 7 -28 6 -59 10 -68 8z"/>
<path d="M6401 7699 c-23 -25 -26 -35 -11 -44 6 -3 10 -1 10 6 0 7 7 21 17 31
9 10 14 21 11 24 -3 3 -15 -5 -27 -17z"/>
<path d="M8516 7695 c4 -10 0 -15 -11 -15 -11 0 -15 -5 -12 -15 4 -8 2 -17 -3
-20 -4 -3 -7 -13 -5 -23 2 -9 4 -19 4 -22 1 -3 5 1 10 9 5 7 14 10 20 7 6 -4
9 -11 6 -16 -3 -4 5 -10 16 -13 12 -3 18 -10 14 -16 -11 -18 4 -12 28 10 l22
21 -22 -6 c-12 -4 -24 -2 -28 3 -3 6 0 8 8 5 8 -3 18 -1 22 5 3 6 -1 11 -9 11
-10 0 -13 6 -9 18 6 14 4 15 -9 4 -13 -10 -18 -10 -24 -1 -4 8 -3 9 5 5 9 -6
10 0 5 21 -8 35 -13 43 -24 43 -5 0 -7 -7 -4 -15z"/>
<path d="M3666 7654 c-5 -14 -4 -15 9 -4 17 14 19 20 6 20 -5 0 -12 -7 -15
-16z"/>
<path d="M8884 7656 c-4 -12 1 -25 14 -37 12 -11 20 -16 17 -13 -3 4 0 13 7
21 9 11 8 13 -2 11 -8 -2 -14 2 -15 9 0 21 -14 26 -21 9z"/>
<path d="M8500 7580 c0 -6 7 -10 15 -10 8 0 15 2 15 4 0 2 -7 6 -15 10 -8 3
-15 1 -15 -4z"/>
<path d="M8922 7558 c5 -15 28 -23 28 -10 0 5 -7 13 -16 16 -10 4 -14 1 -12
-6z"/>
<path d="M8872 7540 c0 -14 2 -19 5 -12 2 6 2 18 0 25 -3 6 -5 1 -5 -13z"/>
<path d="M8725 7500 c27 -12 43 -12 25 0 -8 5 -22 9 -30 9 -10 0 -8 -3 5 -9z"/>
<path d="M7525 7249 c4 -6 1 -10 -6 -8 -8 1 -27 0 -44 -1 l-30 -3 35 -6 c55
-10 96 7 54 23 -9 3 -12 2 -9 -5z"/>
<path d="M7385 7230 c-3 -5 3 -10 15 -10 12 0 18 5 15 10 -3 6 -10 10 -15 10
-5 0 -12 -4 -15 -10z"/>
<path d="M10577 7990 c-71 -39 -125 -165 -114 -269 16 -153 88 -242 197 -244
73 -1 127 35 166 109 71 137 43 310 -63 391 -47 36 -132 42 -186 13z m133
-155 c31 -51 36 -114 12 -168 -27 -60 -56 -76 -86 -48 -43 40 -58 133 -32 194
30 72 70 80 106 22z"/>
<path d="M17373 12283 c-15 -5 -16 -63 -6 -266 5 -121 8 -137 23 -137 20 0 30
27 30 81 0 59 22 54 70 -17 36 -53 48 -64 72 -64 15 0 28 2 28 5 0 3 -25 39
-56 80 l-55 75 55 63 56 62 -27 3 c-23 3 -37 -7 -84 -59 l-56 -63 -7 95 c-4
52 -7 99 -6 104 6 30 -11 47 -37 38z"/>
<path d="M16953 12092 c2 -213 0 -208 132 -211 92 -2 115 6 115 42 0 11 8 29
17 39 16 18 16 18 -13 3 -34 -18 -79 -19 -122 -4 -35 12 -39 21 -41 100 -1 69
21 103 75 113 29 6 33 10 24 21 -9 11 -7 17 9 27 12 7 21 15 21 18 0 8 -152 5
-177 -3 -16 -6 -24 -3 -32 10 -7 13 -9 -34 -8 -155z m129 -140 c13 -6 14 -10
5 -22 -7 -8 -21 -16 -32 -17 -11 -1 -14 0 -8 3 9 4 10 11 3 25 -11 20 -1 24
32 11z"/>
<path d="M17648 12163 c-2 -5 -4 -69 -3 -143 0 -130 1 -135 22 -138 20 -3 21
1 25 96 3 112 18 142 69 142 46 0 59 -30 59 -143 0 -96 0 -98 23 -95 21 3 22
8 25 105 3 96 4 103 29 123 32 25 48 25 73 0 17 -17 20 -33 20 -125 l0 -105
26 0 26 0 -4 121 c-3 118 -4 121 -31 145 -37 32 -87 32 -124 0 l-28 -24 -28
24 c-35 29 -76 31 -111 3 l-26 -20 0 20 c0 14 -6 21 -19 21 -11 0 -21 -3 -23
-7z"/>
<path d="M17323 11178 c-12 -6 -27 -23 -33 -39 -10 -24 -10 -33 4 -53 21 -32
57 -39 201 -34 109 3 118 5 136 27 26 31 24 57 -6 86 -23 24 -29 25 -152 24
-70 0 -138 -5 -150 -11z"/>
<path d="M14615 10658 c-72 -26 -80 -38 -277 -433 -162 -325 -192 -391 -195
-437 -5 -62 20 -112 63 -128 16 -6 683 -10 1835 -10 1640 0 1809 1 1809 16 0
8 -19 46 -43 82 -213 328 -508 777 -540 820 -28 39 -54 61 -90 78 l-52 24
-1240 -1 c-849 0 -1249 -4 -1270 -11z m445 -282 c0 -30 5 -36 47 -57 46 -23
93 -77 93 -105 0 -9 -12 -14 -34 -14 -27 0 -39 7 -56 30 -12 17 -26 30 -31 30
-5 0 -9 -26 -9 -57 l0 -58 47 -25 c121 -64 122 -187 3 -242 -41 -19 -50 -27
-52 -53 -2 -22 -8 -30 -23 -30 -15 0 -21 8 -25 33 -4 29 -11 36 -45 48 -46 15
-105 74 -105 104 0 35 61 27 101 -12 l33 -33 7 30 c4 17 7 47 8 67 1 33 -2 37
-30 43 -17 4 -46 20 -65 37 -78 69 -64 161 33 208 43 20 52 30 53 51 0 31 7
39 32 39 14 0 18 -8 18 -34z m640 -77 c0 -12 -31 -90 -68 -173 -38 -83 -77
-172 -87 -198 -17 -46 -19 -48 -56 -48 -28 0 -39 4 -39 15 0 8 36 90 80 181
44 92 80 169 80 171 0 1 -47 3 -105 3 l-105 0 0 35 0 35 150 0 c147 0 150 0
150 -21z m275 5 c35 -16 65 -65 65 -104 0 -26 -18 -61 -39 -76 -13 -10 -11
-15 13 -36 21 -17 29 -35 33 -68 6 -61 -22 -105 -84 -132 -146 -65 -300 85
-197 193 l26 28 -21 27 c-43 55 -17 139 53 170 42 18 111 17 151 -2z m353 -11
c15 -11 33 -37 41 -57 22 -59 3 -104 -85 -195 -41 -43 -74 -81 -74 -85 0 -3
41 -6 91 -6 l90 0 -3 -32 -3 -33 -147 -3 -148 -3 0 32 c0 26 16 49 100 135 55
57 102 115 106 128 8 33 -11 64 -43 72 -33 9 -54 -4 -72 -44 -12 -27 -20 -32
-48 -32 -43 0 -50 19 -26 67 28 58 76 86 141 81 32 -3 64 -13 80 -25z m182
-144 c8 0 31 3 52 7 29 5 40 2 57 -15 l22 -22 26 21 c31 24 63 26 103 5 37
-19 50 -64 50 -177 l0 -88 -35 0 -35 0 0 98 c0 101 -7 122 -41 122 -39 0 -49
-27 -49 -126 l0 -94 -35 0 -35 0 0 98 c0 104 -7 122 -47 122 -33 0 -43 -29
-43 -129 l0 -91 -30 0 c-27 0 -30 3 -32 33 -3 55 4 232 9 240 3 5 15 6 27 2
11 -4 28 -7 36 -6z m-1184 -118 c-10 -16 -45 -19 -57 -5 -9 12 -5 14 25 14 21
0 35 -4 32 -9z m-26 -95 c28 -35 -11 -93 -47 -70 -36 22 -23 84 17 84 10 0 23
-7 30 -14z"/>
<path d="M14978 10259 c-26 -15 -23 -64 4 -83 12 -9 26 -16 30 -16 9 0 11 71
2 94 -7 18 -12 19 -36 5z"/>
<path d="M15070 9991 l0 -61 25 12 c44 20 41 73 -5 98 -19 10 -20 7 -20 -49z"/>
<path d="M15845 10234 c-41 -42 14 -109 72 -88 38 13 53 56 28 84 -22 24 -77
27 -100 4z"/>
<path d="M15835 10045 c-39 -38 -27 -76 28 -94 53 -18 107 13 107 59 0 23 -49
60 -80 60 -19 0 -40 -9 -55 -25z"/>
<path d="M14308 9209 c-16 -9 -18 -30 -18 -210 l0 -199 -24 -10 c-18 -7 -23
-14 -19 -29 5 -20 12 -21 164 -21 141 0 159 2 159 16 0 9 -6 22 -13 28 -10 8
-12 27 -7 76 4 41 8 52 8 28 4 -82 39 -116 107 -104 57 11 63 37 35 161 -18
84 -20 108 -10 120 10 12 4 21 -34 56 -25 23 -46 48 -46 56 0 7 -7 13 -15 13
-8 0 -15 -7 -15 -15 0 -23 28 -86 44 -99 8 -6 17 -36 20 -66 3 -30 9 -81 12
-112 6 -50 4 -59 -11 -64 -25 -10 -45 21 -45 68 0 29 -7 45 -25 62 -23 21 -24
30 -27 137 l-3 114 -110 2 c-63 2 -118 -2 -127 -8z m200 -106 l-3 -68 -45 -3
c-25 -2 -64 -1 -87 3 l-43 6 0 65 0 64 90 0 91 0 -3 -67z"/>
<path d="M14886 9135 c-42 -22 -55 -44 -56 -91 0 -30 6 -46 24 -63 l25 -23
-29 -24 c-79 -67 -16 -184 98 -184 80 0 142 48 142 110 0 29 -26 76 -46 84
-14 5 -12 10 10 37 80 95 -51 215 -168 154z m112 -57 c36 -36 -6 -104 -57 -91
-50 11 -64 40 -41 84 12 22 78 27 98 7z m9 -169 c16 -14 17 -71 1 -87 -18 -18
-88 -15 -110 5 -31 27 -19 81 22 96 20 8 70 0 87 -14z"/>
<path d="M15155 9063 c-3 -49 -7 -99 -8 -113 -2 -21 3 -25 28 -28 20 -2 39 4
54 18 50 43 115 12 115 -55 0 -70 -70 -100 -119 -51 -29 29 -55 39 -73 27 -18
-11 6 -60 45 -91 23 -18 38 -21 86 -18 49 4 63 9 90 36 29 30 32 38 32 97 0
57 -3 67 -29 94 -37 39 -84 48 -127 27 -18 -9 -34 -15 -36 -13 -2 2 0 25 3 51
l7 47 86 -2 c79 -1 86 0 83 17 -7 44 -8 44 -121 44 l-109 0 -7 -87z"/>
<path d="M15524 9131 c-44 -27 -64 -84 -64 -183 0 -61 5 -92 20 -123 48 -99
176 -101 221 -2 23 53 26 200 5 252 -28 67 -118 95 -182 56z m119 -81 c23 -45
19 -175 -7 -214 -22 -35 -69 -36 -91 -2 -35 53 -31 200 6 237 31 31 70 22 92
-21z"/>
<path d="M15956 8989 c-21 -17 -26 -18 -26 -5 0 10 -9 16 -25 16 l-25 0 0
-125 0 -125 25 0 c25 0 25 0 25 95 0 93 1 96 26 107 48 22 59 3 62 -106 3 -95
3 -96 27 -96 25 0 25 1 25 83 0 91 15 127 54 127 36 0 46 -19 46 -91 0 -94 8
-129 31 -129 17 0 19 9 19 104 0 89 -3 107 -21 130 -16 20 -29 26 -61 26 -24
0 -49 -7 -59 -16 -17 -15 -20 -15 -45 5 -33 26 -45 26 -78 0z"/>
<path d="M13763 8373 c9 -2 23 -2 30 0 6 3 -1 5 -18 5 -16 0 -22 -2 -12 -5z"/>
<path d="M13828 8373 c12 -2 30 -2 40 0 9 3 -1 5 -23 4 -22 0 -30 -2 -17 -4z"/>
<path d="M14508 8183 c7 -3 16 -2 19 1 4 3 -2 6 -13 5 -11 0 -14 -3 -6 -6z"/>
<path d="M14808 8183 c7 -3 16 -2 19 1 4 3 -2 6 -13 5 -11 0 -14 -3 -6 -6z"/>
<path d="M14470 8165 c-7 -9 -11 -17 -9 -20 3 -2 10 5 17 15 14 24 10 26 -8 5z"/>
<path d="M14513 8123 c9 -2 23 -2 30 0 6 3 -1 5 -18 5 -16 0 -22 -2 -12 -5z"/>
<path d="M14516 8041 c17 -4 37 -11 45 -15 8 -4 5 0 -5 8 -11 9 -31 16 -45 15
-24 -1 -24 -2 5 -8z"/>
<path d="M15392 7970 c0 -14 2 -19 5 -12 2 6 2 18 0 25 -3 6 -5 1 -5 -13z"/>
<path d="M14142 7920 c0 -14 2 -19 5 -12 2 6 2 18 0 25 -3 6 -5 1 -5 -13z"/>
<path d="M13005 7211 c-22 -10 -52 -31 -67 -47 -29 -31 -58 -101 -58 -140 0
-23 4 -24 60 -24 54 0 60 2 60 20 0 29 27 78 49 90 11 5 38 10 61 10 84 0 126
-83 80 -157 -11 -18 -85 -99 -165 -181 -144 -148 -145 -149 -145 -195 l0 -46
235 -3 235 -3 0 59 0 59 -150 -6 -151 -6 111 116 c137 142 170 196 170 276 0
86 -41 148 -122 181 -51 22 -153 20 -203 -3z"/>
<path d="M14975 7211 c-52 -24 -88 -64 -117 -126 -20 -45 -22 -66 -23 -200 0
-119 4 -161 18 -201 34 -97 116 -154 222 -154 74 0 129 24 172 73 43 49 63
120 70 244 11 201 -37 321 -149 367 -51 22 -143 20 -193 -3z m165 -119 c38
-39 50 -88 50 -212 0 -121 -10 -167 -46 -210 -21 -24 -34 -30 -66 -30 -55 0
-77 15 -101 68 -29 64 -31 264 -3 335 30 79 112 103 166 49z"/>
<path d="M13599 7042 c-186 -261 -181 -252 -177 -308 l3 -49 158 -3 157 -3 0
-69 0 -70 60 0 59 0 3 68 3 67 43 3 42 3 0 55 0 54 -45 0 -45 0 0 215 0 215
-67 0 -68 0 -126 -178z m141 -112 l0 -140 -95 0 c-52 0 -95 3 -95 6 0 3 13 23
29 43 24 30 77 111 138 209 7 12 16 22 18 22 3 0 5 -63 5 -140z"/>
<path d="M14287 7108 c-4 -62 -10 -150 -13 -194 l-7 -82 49 -4 c45 -4 52 -2
86 30 29 28 47 36 87 40 59 5 92 -11 117 -60 21 -41 15 -129 -12 -159 -32 -37
-79 -51 -124 -39 -38 10 -80 50 -80 76 0 10 -17 14 -65 14 -59 0 -65 -2 -65
-21 0 -60 76 -146 149 -167 154 -47 300 29 332 172 24 109 -22 215 -112 260
-69 34 -129 34 -194 1 -27 -13 -50 -23 -51 -22 -1 1 1 38 4 82 l7 80 50 -2
c28 -2 98 0 158 3 l107 7 -1 48 -2 49 -207 0 -207 0 -6 -112z"/>
<path d="M15890 6845 c0 -22 4 -26 23 -23 14 2 22 10 22 23 0 13 -8 21 -22 23
-19 3 -23 -1 -23 -23z"/>
<path d="M16000 6696 l0 -176 25 0 25 0 -2 173 c-3 170 -3 172 -25 175 l-23 3
0 -175z"/>
<path d="M16162 6765 c-56 -25 -79 -115 -47 -191 17 -41 71 -69 116 -59 35 8
79 42 79 61 0 20 -17 18 -47 -6 -36 -28 -77 -26 -102 6 -37 48 -30 54 64 54
96 0 104 6 86 63 -23 68 -87 99 -149 72z m86 -41 c12 -8 22 -24 22 -35 0 -17
-7 -19 -65 -19 -36 0 -65 3 -65 6 0 11 23 49 34 56 18 12 50 9 74 -8z"/>
<path d="M16680 6766 c-82 -26 -95 -186 -19 -227 27 -14 81 -14 108 0 18 10
21 9 21 -9 0 -28 -44 -70 -73 -70 -13 0 -32 7 -43 15 -21 16 -54 20 -54 6 0
-24 54 -51 102 -51 41 0 54 5 79 29 l29 29 0 141 c0 134 -1 141 -20 141 -12 0
-20 -7 -20 -16 0 -12 -3 -14 -13 -6 -28 23 -62 30 -97 18z m69 -36 c31 -16 44
-62 31 -109 -21 -79 -99 -80 -120 -2 -21 78 30 143 89 111z"/>
<path d="M16942 6765 c-37 -16 -62 -64 -62 -119 0 -68 35 -119 91 -130 54 -10
129 35 115 70 -5 13 -11 12 -37 -10 -17 -14 -41 -26 -54 -26 -28 0 -61 27 -70
57 -6 22 -4 22 82 25 l88 3 -2 37 c-3 49 -27 84 -65 97 -39 14 -46 13 -86 -4z
m90 -42 c10 -9 18 -24 18 -35 0 -16 -8 -18 -65 -18 -57 0 -64 2 -58 18 18 50
69 68 105 35z"/>
<path d="M15480 6645 l0 -125 25 0 c25 0 25 0 25 95 0 90 1 95 25 111 23 15
27 15 50 0 24 -16 25 -21 25 -111 0 -86 2 -95 19 -95 16 0 19 10 23 91 4 81 7
94 27 110 29 24 36 24 61 -1 17 -17 20 -33 20 -110 0 -83 1 -90 20 -90 19 0
20 7 20 96 0 127 -14 154 -81 154 -23 0 -42 -7 -54 -20 l-18 -20 -19 20 c-22
24 -80 27 -98 5 -7 -8 -16 -15 -21 -15 -5 0 -9 7 -9 15 0 8 -9 15 -20 15 -19
0 -20 -7 -20 -125z"/>
<path d="M15890 6644 c0 -124 0 -125 23 -122 15 2 22 10 21 26 0 12 -1 67 -2
122 -2 93 -3 100 -22 100 -19 0 -20 -7 -20 -126z"/>
<path d="M16395 6745 c-43 -43 -26 -63 22 -25 41 32 103 20 103 -19 0 -20 -26
-31 -77 -31 -45 0 -86 -38 -86 -78 0 -62 63 -95 128 -67 21 8 37 10 40 4 4 -5
15 -9 27 -9 14 0 18 5 14 16 -3 9 -6 56 -6 105 0 111 -13 129 -90 129 -41 0
-56 -5 -75 -25z m125 -127 c0 -49 -76 -88 -108 -56 -33 33 7 78 70 78 32 0 38
-3 38 -22z"/>
<path d="M14032 6533 c-16 -148 -17 -143 17 -143 16 0 33 6 39 13 10 11 72
209 72 228 0 5 -26 9 -58 9 l-59 0 -11 -107z"/>
</g>
</svg>
